<svg width="96" height="17" viewBox="0 0 96 17" fill="none" xmlns="http://www.w3.org/2000/svg">
<path d="M9.26098 1.34905L11.2756 5.41621C11.3214 5.51945 11.3935 5.60886 11.4846 5.67556C11.5758 5.74224 11.6828 5.78389 11.795 5.79632L16.2423 6.45517C16.3711 6.47172 16.4925 6.52457 16.5923 6.60755C16.6922 6.69051 16.7664 6.80019 16.8062 6.92373C16.8461 7.04729 16.8499 7.17965 16.8174 7.30532C16.7849 7.43101 16.7173 7.54483 16.6224 7.63351L13.4168 10.8138C13.3351 10.8902 13.2736 10.9859 13.2383 11.0921C13.2028 11.1983 13.1946 11.3117 13.2141 11.4219L13.987 15.8945C14.0094 16.0231 13.9952 16.1552 13.9462 16.2761C13.8971 16.397 13.8152 16.5016 13.7095 16.5783C13.6039 16.6548 13.4789 16.7002 13.3488 16.7093C13.2186 16.7183 13.0885 16.6907 12.9733 16.6294L8.96957 14.5134C8.86705 14.4631 8.75435 14.437 8.64014 14.437C8.52593 14.437 8.41324 14.4631 8.31071 14.5134L4.3069 16.6294C4.19172 16.6907 4.06166 16.7183 3.93152 16.7093C3.80138 16.7002 3.67639 16.6548 3.57078 16.5783C3.46517 16.5016 3.38316 16.397 3.3341 16.2761C3.28506 16.1552 3.2709 16.0231 3.29328 15.8945L4.06617 11.3712C4.08576 11.261 4.07747 11.1476 4.04207 11.0414C4.00667 10.9352 3.94526 10.8395 3.86344 10.7631L0.619855 7.63351C0.523894 7.54241 0.456408 7.42543 0.425574 7.29676C0.39474 7.16808 0.401881 7.03322 0.446129 6.90852C0.490379 6.78382 0.569838 6.67462 0.674883 6.59415C0.779929 6.5137 0.906051 6.46541 1.03797 6.45517L5.48524 5.79632C5.5975 5.78389 5.70454 5.74224 5.79569 5.67556C5.88684 5.60886 5.9589 5.51945 6.00472 5.41621L8.01929 1.34905C8.07416 1.2306 8.16176 1.13031 8.27178 1.06002C8.38178 0.989738 8.5096 0.952393 8.64014 0.952393C8.77068 0.952393 8.89851 0.989738 9.00851 1.06002C9.11852 1.13031 9.20612 1.2306 9.26098 1.34905Z" fill="#FFC700"/>
<path d="M28.9629 1.34901L30.9774 5.41617C31.0233 5.5194 31.0953 5.60882 31.1865 5.67551C31.2776 5.7422 31.3847 5.78384 31.4969 5.79627L35.9441 6.45513C36.073 6.47168 36.1944 6.52452 36.2942 6.6075C36.3941 6.69047 36.4683 6.80014 36.5081 6.92369C36.548 7.04725 36.5518 7.1796 36.5192 7.30528C36.4868 7.43097 36.4192 7.54478 36.3243 7.63346L33.1187 10.8137C33.0369 10.8901 32.9755 10.9858 32.9401 11.092C32.9047 11.1983 32.8964 11.3116 32.9159 11.4219L33.6888 15.8944C33.7113 16.023 33.6971 16.1552 33.648 16.2761C33.599 16.3969 33.517 16.5016 33.4114 16.5783C33.3058 16.6548 33.1808 16.7001 33.0506 16.7093C32.9205 16.7183 32.7904 16.6906 32.6752 16.6293L28.6714 14.5134C28.5689 14.4631 28.4562 14.437 28.342 14.437C28.2278 14.437 28.1151 14.4631 28.0126 14.5134L24.0088 16.6293C23.8936 16.6906 23.7635 16.7183 23.6334 16.7093C23.5033 16.7001 23.3783 16.6548 23.2727 16.5783C23.167 16.5016 23.085 16.3969 23.036 16.2761C22.9869 16.1552 22.9728 16.023 22.9952 15.8944L23.768 11.3712C23.7876 11.261 23.7793 11.1476 23.7439 11.0414C23.7085 10.9351 23.6471 10.8395 23.5653 10.763L20.3217 7.63346C20.2258 7.54236 20.1583 7.42538 20.1274 7.29671C20.0966 7.16803 20.1038 7.03317 20.148 6.90847C20.1923 6.78377 20.2717 6.67458 20.3768 6.59411C20.4818 6.51365 20.6079 6.46537 20.7398 6.45513L25.1871 5.79627C25.2994 5.78384 25.4064 5.7422 25.4976 5.67551C25.5887 5.60882 25.6608 5.5194 25.7066 5.41617L27.7212 1.34901C27.776 1.23055 27.8636 1.13026 27.9736 1.05998C28.0837 0.989692 28.2115 0.952347 28.342 0.952347C28.4726 0.952347 28.6004 0.989692 28.7104 1.05998C28.8204 1.13026 28.908 1.23055 28.9629 1.34901Z" fill="#FFC700"/>
<path d="M48.665 1.34901L50.6796 5.41617C50.7254 5.5194 50.7975 5.60882 50.8886 5.67551C50.9798 5.7422 51.0868 5.78384 51.1991 5.79627L55.6463 6.45513C55.7752 6.47168 55.8965 6.52452 55.9964 6.6075C56.0962 6.69047 56.1705 6.80014 56.2103 6.92369C56.2502 7.04725 56.254 7.1796 56.2214 7.30528C56.189 7.43097 56.1213 7.54478 56.0264 7.63346L52.8208 10.8137C52.7391 10.8901 52.6777 10.9858 52.6423 11.092C52.6068 11.1983 52.5986 11.3116 52.6181 11.4219L53.391 15.8944C53.4134 16.023 53.3992 16.1552 53.3502 16.2761C53.3012 16.3969 53.2192 16.5016 53.1135 16.5783C53.008 16.6548 52.8829 16.7001 52.7528 16.7093C52.6227 16.7183 52.4925 16.6906 52.3774 16.6293L48.3736 14.5134C48.2711 14.4631 48.1584 14.437 48.0442 14.437C47.93 14.437 47.8173 14.4631 47.7147 14.5134L43.7109 16.6293C43.5958 16.6906 43.4657 16.7183 43.3356 16.7093C43.2054 16.7001 43.0804 16.6548 42.9748 16.5783C42.8692 16.5016 42.7872 16.3969 42.7381 16.2761C42.6891 16.1552 42.6749 16.023 42.6973 15.8944L43.4702 11.3712C43.4898 11.261 43.4815 11.1476 43.4461 11.0414C43.4107 10.9351 43.3493 10.8395 43.2675 10.763L40.0239 7.63346C39.9279 7.54236 39.8604 7.42538 39.8296 7.29671C39.7988 7.16803 39.8059 7.03317 39.8502 6.90847C39.8944 6.78377 39.9739 6.67458 40.0789 6.59411C40.184 6.51365 40.3101 6.46537 40.442 6.45513L44.8893 5.79627C45.0015 5.78384 45.1086 5.7422 45.1997 5.67551C45.2909 5.60882 45.3629 5.5194 45.4088 5.41617L47.4233 1.34901C47.4782 1.23055 47.5658 1.13026 47.6758 1.05998C47.7858 0.989692 47.9136 0.952347 48.0442 0.952347C48.1747 0.952347 48.3025 0.989692 48.4126 1.05998C48.5226 1.13026 48.6102 1.23055 48.665 1.34901Z" fill="#FFC700"/>
<path d="M68.3672 1.34901L70.3818 5.41617C70.4276 5.5194 70.4996 5.60882 70.5908 5.67551C70.6819 5.7422 70.789 5.78384 70.9012 5.79627L75.3485 6.45513C75.4773 6.47168 75.5987 6.52452 75.6985 6.6075C75.7984 6.69047 75.8726 6.80014 75.9124 6.92369C75.9523 7.04725 75.9561 7.1796 75.9236 7.30528C75.8911 7.43097 75.8235 7.54478 75.7286 7.63346L72.523 10.8137C72.4413 10.8901 72.3798 10.9858 72.3445 11.092C72.309 11.1983 72.3008 11.3116 72.3203 11.4219L73.0932 15.8944C73.1156 16.023 73.1014 16.1552 73.0524 16.2761C73.0033 16.3969 72.9213 16.5016 72.8157 16.5783C72.7101 16.6548 72.5851 16.7001 72.455 16.7093C72.3248 16.7183 72.1947 16.6906 72.0795 16.6293L68.0758 14.5134C67.9732 14.4631 67.8605 14.437 67.7463 14.437C67.6321 14.437 67.5194 14.4631 67.4169 14.5134L63.4131 16.6293C63.2979 16.6906 63.1679 16.7183 63.0377 16.7093C62.9076 16.7001 62.7826 16.6548 62.677 16.5783C62.5714 16.5016 62.4894 16.3969 62.4403 16.2761C62.3913 16.1552 62.3771 16.023 62.3995 15.8944L63.1724 11.3712C63.1919 11.261 63.1837 11.1476 63.1483 11.0414C63.1129 10.9351 63.0514 10.8395 62.9696 10.763L59.726 7.63346C59.6301 7.54236 59.5626 7.42538 59.5318 7.29671C59.5009 7.16803 59.5081 7.03317 59.5523 6.90847C59.5966 6.78377 59.676 6.67458 59.7811 6.59411C59.8861 6.51365 60.0122 6.46537 60.1442 6.45513L64.5914 5.79627C64.7037 5.78384 64.8107 5.7422 64.9019 5.67551C64.993 5.60882 65.0651 5.5194 65.1109 5.41617L67.1255 1.34901C67.1804 1.23055 67.268 1.13026 67.378 1.05998C67.488 0.989692 67.6158 0.952347 67.7463 0.952347C67.8769 0.952347 68.0047 0.989692 68.1147 1.05998C68.2247 1.13026 68.3123 1.23055 68.3672 1.34901Z" fill="#FFC700"/>
<path d="M88.0692 1.34901L90.0838 5.41617C90.1296 5.5194 90.2017 5.60882 90.2928 5.67551C90.384 5.7422 90.491 5.78384 90.6033 5.79627L95.0505 6.45513C95.1794 6.47168 95.3007 6.52452 95.4006 6.6075C95.5004 6.69047 95.5747 6.80014 95.6145 6.92369C95.6544 7.04725 95.6582 7.1796 95.6256 7.30528C95.5932 7.43097 95.5255 7.54478 95.4306 7.63346L92.225 10.8137C92.1433 10.8901 92.0818 10.9858 92.0465 11.092C92.011 11.1983 92.0028 11.3116 92.0223 11.4219L92.7952 15.8944C92.8176 16.023 92.8034 16.1552 92.7544 16.2761C92.7054 16.3969 92.6234 16.5016 92.5177 16.5783C92.4122 16.6548 92.2871 16.7001 92.157 16.7093C92.0269 16.7183 91.8967 16.6906 91.7816 16.6293L87.7778 14.5134C87.6753 14.4631 87.5626 14.437 87.4484 14.437C87.3342 14.437 87.2215 14.4631 87.1189 14.5134L83.1151 16.6293C82.9999 16.6906 82.8699 16.7183 82.7397 16.7093C82.6096 16.7001 82.4846 16.6548 82.379 16.5783C82.2734 16.5016 82.1914 16.3969 82.1423 16.2761C82.0933 16.1552 82.0791 16.023 82.1015 15.8944L82.8744 11.3712C82.894 11.261 82.8857 11.1476 82.8503 11.0414C82.8149 10.9351 82.7535 10.8395 82.6717 10.763L79.4281 7.63346C79.3321 7.54236 79.2646 7.42538 79.2338 7.29671C79.203 7.16803 79.2101 7.03317 79.2544 6.90847C79.2986 6.78377 79.3781 6.67458 79.4831 6.59411C79.5882 6.51365 79.7143 6.46537 79.8462 6.45513L84.2935 5.79627C84.4057 5.78384 84.5128 5.7422 84.6039 5.67551C84.6951 5.60882 84.7671 5.5194 84.8129 5.41617L86.8275 1.34901C86.8824 1.23055 86.97 1.13026 87.08 1.05998C87.19 0.989692 87.3178 0.952347 87.4484 0.952347C87.5789 0.952347 87.7067 0.989692 87.8167 1.05998C87.9267 1.13026 88.0143 1.23055 88.0692 1.34901Z" fill="#FFC700"/>
</svg>
