<svg width="180" height="28" viewBox="0 0 180 28" fill="none" xmlns="http://www.w3.org/2000/svg">
<path d="M8.12 0H19.88C24.36 0 28 3.64 28 8.12V19.88C28 22.0336 27.1445 24.0989 25.6217 25.6217C24.0989 27.1445 22.0336 28 19.88 28H8.12C3.64 28 0 24.36 0 19.88V8.12C0 5.96644 0.855498 3.90109 2.37829 2.37829C3.90109 0.855498 5.96644 0 8.12 0ZM7.84 2.8C6.50331 2.8 5.22137 3.331 4.27618 4.27618C3.331 5.22137 2.8 6.50331 2.8 7.84V20.16C2.8 22.946 5.054 25.2 7.84 25.2H20.16C21.4967 25.2 22.7786 24.669 23.7238 23.7238C24.669 22.7786 25.2 21.4967 25.2 20.16V7.84C25.2 5.054 22.946 2.8 20.16 2.8H7.84ZM21.35 4.9C21.8141 4.9 22.2592 5.08437 22.5874 5.41256C22.9156 5.74075 23.1 6.18587 23.1 6.65C23.1 7.11413 22.9156 7.55925 22.5874 7.88744C22.2592 8.21563 21.8141 8.4 21.35 8.4C20.8859 8.4 20.4408 8.21563 20.1126 7.88744C19.7844 7.55925 19.6 7.11413 19.6 6.65C19.6 6.18587 19.7844 5.74075 20.1126 5.41256C20.4408 5.08437 20.8859 4.9 21.35 4.9ZM14 7C15.8565 7 17.637 7.7375 18.9497 9.05025C20.2625 10.363 21 12.1435 21 14C21 15.8565 20.2625 17.637 18.9497 18.9497C17.637 20.2625 15.8565 21 14 21C12.1435 21 10.363 20.2625 9.05025 18.9497C7.7375 17.637 7 15.8565 7 14C7 12.1435 7.7375 10.363 9.05025 9.05025C10.363 7.7375 12.1435 7 14 7ZM14 9.8C12.8861 9.8 11.8178 10.2425 11.0302 11.0302C10.2425 11.8178 9.8 12.8861 9.8 14C9.8 15.1139 10.2425 16.1822 11.0302 16.9698C11.8178 17.7575 12.8861 18.2 14 18.2C15.1139 18.2 16.1822 17.7575 16.9698 16.9698C17.7575 16.1822 18.2 15.1139 18.2 14C18.2 12.8861 17.7575 11.8178 16.9698 11.0302C16.1822 10.2425 15.1139 9.8 14 9.8Z" fill="#787878"/>
<path d="M64 20L74.38 14L64 8V20ZM87.12 4.34C87.38 5.28 87.56 6.54 87.68 8.14C87.82 9.74 87.88 11.12 87.88 12.32L88 14C88 18.38 87.68 21.6 87.12 23.66C86.62 25.46 85.46 26.62 83.66 27.12C82.72 27.38 81 27.56 78.36 27.68C75.76 27.82 73.38 27.88 71.18 27.88L68 28C59.62 28 54.4 27.68 52.34 27.12C50.54 26.62 49.38 25.46 48.88 23.66C48.62 22.72 48.44 21.46 48.32 19.86C48.18 18.26 48.12 16.88 48.12 15.68L48 14C48 9.62 48.32 6.4 48.88 4.34C49.38 2.54 50.54 1.38 52.34 0.88C53.28 0.62 55 0.44 57.64 0.32C60.24 0.18 62.62 0.12 64.82 0.12L68 0C76.38 0 81.6 0.32 83.66 0.88C85.46 1.38 86.62 2.54 87.12 4.34Z" fill="#787878"/>
<path d="M117.856 27.356C119.2 27.762 120.558 28 122 28C125.713 28 129.274 26.525 131.899 23.8995C134.525 21.274 136 17.713 136 14C136 12.1615 135.638 10.341 134.934 8.64243C134.231 6.94387 133.2 5.40053 131.899 4.1005C130.599 2.80048 129.056 1.76925 127.358 1.06569C125.659 0.362121 123.839 0 122 0C120.161 0 118.341 0.362121 116.642 1.06569C114.944 1.76925 113.401 2.80048 112.101 4.1005C109.475 6.72601 108 10.287 108 14C108 19.95 111.738 25.06 117.016 27.076C116.89 25.984 116.764 24.178 117.016 22.932L118.626 16.016C118.626 16.016 118.22 15.204 118.22 13.916C118.22 11.984 119.424 10.542 120.796 10.542C122 10.542 122.56 11.424 122.56 12.558C122.56 13.762 121.762 15.484 121.356 17.136C121.118 18.508 122.084 19.712 123.484 19.712C125.976 19.712 127.908 17.052 127.908 13.3C127.908 9.94 125.5 7.644 122.042 7.644C118.094 7.644 115.77 10.584 115.77 13.678C115.77 14.882 116.162 16.1 116.806 16.898C116.932 16.982 116.932 17.094 116.89 17.304L116.484 18.83C116.484 19.068 116.33 19.152 116.092 18.984C114.3 18.2 113.264 15.652 113.264 13.594C113.264 9.17 116.4 5.152 122.448 5.152C127.264 5.152 131.016 8.61 131.016 13.202C131.016 18.018 128.034 21.882 123.764 21.882C122.406 21.882 121.076 21.154 120.6 20.3L119.662 23.618C119.34 24.822 118.458 26.432 117.856 27.398V27.356Z" fill="#787878"/>
<path d="M175.041 4.38667C173.995 3.17275 173.418 1.61378 173.418 0H168.689V19.2889C168.652 20.3327 168.219 21.3214 167.479 22.0468C166.74 22.7722 165.752 23.1776 164.724 23.1778C162.551 23.1778 160.745 21.3733 160.745 19.1333C160.745 16.4578 163.286 14.4511 165.903 15.2756V10.36C160.622 9.64444 156 13.8133 156 19.1333C156 24.3133 160.224 28 164.709 28C169.515 28 173.418 24.0333 173.418 19.1333V9.34889C175.336 10.7487 177.639 11.4997 180 11.4956V6.68889C180 6.68889 177.122 6.82889 175.041 4.38667Z" fill="#787878"/>
</svg>
