<svg width="25" height="25" viewBox="0 0 25 25" fill="none" xmlns="http://www.w3.org/2000/svg">
<path d="M21.5981 14.3649H16.7805C16.1421 14.3649 15.5297 14.6177 15.0772 15.0681C14.6247 15.5184 14.3691 16.1297 14.3661 16.7681V21.5856C14.3661 22.226 14.6205 22.8401 15.0733 23.2928C15.526 23.7456 16.1402 24 16.7805 24H21.5981C22.2362 23.9967 22.8471 23.7409 23.2972 23.2885C23.7473 22.836 24 22.2238 24 21.5856V16.7681C24 16.131 23.7469 15.5201 23.2965 15.0696C22.846 14.6192 22.2351 14.3661 21.5981 14.3661M8.21951 14.3649H3.40195C2.76366 14.3685 2.15274 14.6246 1.70268 15.0772C1.25261 15.5298 0.99999 16.1422 1 16.7805V21.5981C1 22.2351 1.25306 22.846 1.70351 23.2965C2.15397 23.7469 2.76491 24 3.40195 24H8.21951C8.8577 24 9.46993 23.7473 9.92236 23.2972C10.3748 22.8471 10.6306 22.2362 10.6339 21.5981V16.7805C10.6339 16.1402 10.3795 15.526 9.92674 15.0733C9.47395 14.6205 8.85985 14.3661 8.21951 14.3661M8.21951 1H3.40195C3.08652 1 2.77418 1.06213 2.48276 1.18284C2.19134 1.30355 1.92656 1.48047 1.70351 1.70351C1.48047 1.92656 1.30355 2.19134 1.18284 2.48276C1.06213 2.77418 1 3.08652 1 3.40195V8.21951C0.999992 8.8577 1.25266 9.46993 1.70275 9.92236C2.15285 10.3748 2.76377 10.6306 3.40195 10.6339H8.21951C8.85985 10.6339 9.47395 10.3795 9.92674 9.92674C10.3795 9.47395 10.6339 8.85985 10.6339 8.21951V3.40195C10.6306 2.76377 10.3748 2.15285 9.92236 1.70275C9.46993 1.25266 8.8577 0.999992 8.21951 1ZM21.5981 1H16.7805C16.1423 0.999992 15.5301 1.25266 15.0776 1.70275C14.6252 2.15285 14.3694 2.76377 14.3661 3.40195V8.21951C14.3664 8.85975 14.6209 9.47366 15.0736 9.92637C15.5263 10.3791 16.1403 10.6336 16.7805 10.6339H21.5981C22.2362 10.6306 22.8471 10.3748 23.2972 9.92236C23.7473 9.46993 24 8.8577 24 8.21951V3.40195C24 2.76491 23.7469 2.15397 23.2965 1.70351C22.846 1.25306 22.2351 1 21.5981 1Z" stroke="white" stroke-width="2" stroke-linecap="round" stroke-linejoin="round"/>
</svg>
