<svg width="73" height="12" viewBox="0 0 73 12" fill="none" xmlns="http://www.w3.org/2000/svg">
<path d="M6.5 9.42153L9.53116 11.148C10.0863 11.4644 10.7655 10.9967 10.6195 10.4051L9.81602 7.15858L12.4966 4.97128C12.9859 4.57234 12.723 3.81573 12.0803 3.76758L8.55242 3.48557L7.17197 0.417856C6.92363 -0.139285 6.07637 -0.139285 5.82803 0.417856L4.44758 3.47869L0.919746 3.7607C0.276994 3.80885 0.0140497 4.56546 0.503418 4.9644L3.18398 7.1517L2.38055 10.3983C2.23447 10.9898 2.91374 11.4575 3.46884 11.1411L6.5 9.42153Z" fill="#FFC700"/>
<path d="M21.5 9.42153L24.5312 11.148C25.0863 11.4644 25.7655 10.9967 25.6195 10.4051L24.816 7.15858L27.4966 4.97128C27.9859 4.57234 27.723 3.81573 27.0803 3.76758L23.5524 3.48557L22.172 0.417856C21.9236 -0.139285 21.0764 -0.139285 20.828 0.417856L19.4476 3.47869L15.9197 3.7607C15.277 3.80885 15.014 4.56546 15.5034 4.9644L18.184 7.1517L17.3805 10.3983C17.2345 10.9898 17.9137 11.4575 18.4688 11.1411L21.5 9.42153Z" fill="#FFC700"/>
<path d="M36.5 9.42153L39.5312 11.148C40.0863 11.4644 40.7655 10.9967 40.6195 10.4051L39.816 7.15858L42.4966 4.97128C42.9859 4.57234 42.723 3.81573 42.0803 3.76758L38.5524 3.48557L37.172 0.417856C36.9236 -0.139285 36.0764 -0.139285 35.828 0.417856L34.4476 3.47869L30.9197 3.7607C30.277 3.80885 30.014 4.56546 30.5034 4.9644L33.184 7.1517L32.3805 10.3983C32.2345 10.9898 32.9137 11.4575 33.4688 11.1411L36.5 9.42153Z" fill="#FFC700"/>
<path d="M51.5 9.42153L54.5312 11.148C55.0863 11.4644 55.7655 10.9967 55.6195 10.4051L54.816 7.15858L57.4966 4.97128C57.9859 4.57234 57.723 3.81573 57.0803 3.76758L53.5524 3.48557L52.172 0.417856C51.9236 -0.139285 51.0764 -0.139285 50.828 0.417856L49.4476 3.47869L45.9197 3.7607C45.277 3.80885 45.014 4.56546 45.5034 4.9644L48.184 7.1517L47.3805 10.3983C47.2345 10.9898 47.9137 11.4575 48.4688 11.1411L51.5 9.42153Z" fill="#FFC700"/>
<path d="M66.5003 9.01894L66.6732 9.11741L69.7044 10.8439L69.7045 10.8439C69.856 10.9303 70.0207 10.9103 70.1405 10.8283C70.2589 10.7472 70.3127 10.6232 70.2797 10.4892L66.5003 9.01894ZM66.5003 9.01894L66.3273 9.11711L63.2961 10.8367L63.2955 10.837C63.144 10.9234 62.9793 10.9034 62.8595 10.8214C62.7411 10.7403 62.6872 10.6163 62.7203 10.4822L63.5237 7.23578L63.577 7.02064L63.4053 6.88052L60.7247 4.69323L60.7246 4.69313C60.6006 4.5921 60.578 4.46031 60.6177 4.3456C60.6583 4.22851 60.7678 4.12307 60.9459 4.10973L60.9459 4.10973L60.9476 4.10959L64.4755 3.82758L64.6816 3.8111L64.7666 3.62259L66.1471 0.561752L66.1477 0.560348C66.2061 0.429315 66.3393 0.35 66.5 0.35C66.6607 0.35 66.7939 0.429315 66.8523 0.560349L66.8528 0.561482L68.2333 3.6292L68.3182 3.81797L68.5245 3.83446L72.0524 4.11647L72.0541 4.1166C72.2322 4.12994 72.3417 4.23539 72.3823 4.35248C72.422 4.46719 72.3994 4.59898 72.2754 4.7L72.2753 4.70011L69.5947 6.8874L69.423 7.02752L69.4763 7.24266L70.2797 10.489L66.5003 9.01894Z" fill="#F5F5F5" stroke="#FFC700" stroke-width="0.7"/>
</svg>
