<svg width="34" height="33" viewBox="0 0 34 33" fill="none" xmlns="http://www.w3.org/2000/svg">
<circle cx="16.75" cy="16.5" r="16.5" fill="#F13031"/>
<path d="M17.0976 20.4517C17.0457 20.3969 17.0045 20.3319 16.9764 20.2603C16.9483 20.1887 16.9338 20.1119 16.9338 20.0344C16.9338 19.9568 16.9483 19.8801 16.9764 19.8085C17.0045 19.7369 17.0457 19.6718 17.0976 19.6171L19.4866 17.0893L12.6662 17.0893C12.5186 17.0893 12.3769 17.0273 12.2725 16.9168C12.1681 16.8063 12.1095 16.6565 12.1095 16.5002C12.1095 16.344 12.1681 16.1941 12.2725 16.0836C12.3769 15.9732 12.5186 15.9111 12.6662 15.9111L19.4866 15.9111L17.0976 13.3823C16.993 13.2717 16.9342 13.1216 16.9342 12.9651C16.9342 12.8085 16.993 12.6584 17.0976 12.5478C17.2022 12.4371 17.3441 12.3749 17.492 12.3749C17.6399 12.3749 17.7818 12.4371 17.8864 12.5478L21.2269 16.0824C21.2788 16.1372 21.32 16.2022 21.3481 16.2738C21.3762 16.3454 21.3907 16.4222 21.3907 16.4997C21.3907 16.5773 21.3762 16.654 21.3481 16.7256C21.32 16.7972 21.2788 16.8623 21.2269 16.917L17.8864 20.4517C17.8346 20.5066 17.7732 20.5502 17.7055 20.5799C17.6378 20.6096 17.5653 20.6249 17.492 20.6249C17.4187 20.6249 17.3461 20.6096 17.2785 20.5799C17.2108 20.5502 17.1493 20.5066 17.0976 20.4517Z" fill="white"/>
</svg>
