<svg width="64" height="64" viewBox="0 0 64 64" fill="none" xmlns="http://www.w3.org/2000/svg">
<circle cx="32" cy="32" r="32" fill="#F5F5F5"/>
<path d="M35.7502 40.25C35.7502 41.2446 35.3551 42.1984 34.6519 42.9017C33.9486 43.6049 32.9948 44 32.0003 44C31.0057 44 30.0519 43.6049 29.3487 42.9017C28.6454 42.1984 28.2503 41.2446 28.2503 40.25M32.9015 22.7538L31.069 22.75C26.8891 22.74 23.2604 26.1363 23.2317 30.25V34.9875C23.2317 35.975 23.1067 36.9388 22.5679 37.76L22.2092 38.3075C21.6629 39.1375 22.2504 40.25 23.2317 40.25H40.7689C41.7501 40.25 42.3363 39.1375 41.7913 38.3075L41.4326 37.76C40.8951 36.9388 40.7689 35.9738 40.7689 34.9863V30.2513C40.7189 26.1363 37.0814 22.7638 32.9015 22.7538ZM32.0001 19C32.6632 19 33.299 19.2634 33.7679 19.7322C34.2367 20.2011 34.5001 20.837 34.5001 21.5V22.75H29.5002V21.5C29.5002 20.837 29.7636 20.2011 30.2324 19.7322C30.7012 19.2634 31.3371 19 32.0001 19Z" stroke="black" stroke-width="2" stroke-linecap="round" stroke-linejoin="round"/>
</svg>
