<svg width="18" height="9" viewBox="0 0 18 9" fill="none" xmlns="http://www.w3.org/2000/svg">
<path d="M16.6028 0.236556L9.57559 7.15264C9.42226 7.30433 9.21529 7.3894 8.99962 7.3894C8.78394 7.3894 8.57697 7.30433 8.42364 7.15264L1.39647 0.238058C1.2422 0.0864535 1.03455 0.00150418 0.818252 0.0015042C0.601952 0.00150422 0.394305 0.0864536 0.240029 0.238058C0.16406 0.312119 0.103685 0.400638 0.0624611 0.498397C0.0212374 0.596156 -6.85123e-07 0.701179 -6.75848e-07 0.807275C-6.66572e-07 0.91337 0.0212375 1.01839 0.0624611 1.11615C0.103685 1.21391 0.16406 1.30243 0.240029 1.37649L7.2657 8.29108C7.72846 8.74544 8.35108 9 8.99962 9C9.64815 9 10.2708 8.74544 10.7335 8.29108L17.7592 1.37649C17.8354 1.3024 17.896 1.21379 17.9373 1.11589C17.9787 1.018 18 0.912798 18 0.806522C18 0.700246 17.9787 0.595049 17.9373 0.497151C17.896 0.399253 17.8354 0.31064 17.7592 0.236556C17.6049 0.0849516 17.3973 2.23056e-06 17.181 2.24947e-06C16.9647 2.26838e-06 16.757 0.0849516 16.6028 0.236556Z" fill="black"/>
</svg>
