<svg width="32" height="28" viewBox="0 0 32 28" fill="none" xmlns="http://www.w3.org/2000/svg">
<path d="M12.8889 8V5C12.8889 4.20435 13.2167 3.44129 13.8001 2.87868C14.3836 2.31607 15.1749 2 16 2H26.8889C27.714 2 28.5053 2.31607 29.0888 2.87868C29.6722 3.44129 30 4.20435 30 5V23C30 23.7956 29.6722 24.5587 29.0888 25.1213C28.5053 25.6839 27.714 26 26.8889 26H16C15.1749 26 14.3836 25.6839 13.8001 25.1213C13.2167 24.5587 12.8889 23.7956 12.8889 23V20M20.6667 14H2M2 14L6.66667 9.5M2 14L6.66667 18.5" stroke="black" stroke-width="2.3" stroke-linecap="round" stroke-linejoin="round"/>
</svg>
