<svg width="25" height="26" viewBox="0 0 25 26" fill="none" xmlns="http://www.w3.org/2000/svg">
<path d="M1 22.3333L0 22.3333L1 22.3333ZM3.875 1L3.875 0L3.875 1ZM23.1375 1L23.1375 2L23.1375 1ZM24 1.8L25 1.8L24 1.8ZM23 19.2853C23 19.8376 23.4477 20.2853 24 20.2853C24.5523 20.2853 25 19.8376 25 19.2853H23ZM24 20.6667C24.5523 20.6667 25 20.219 25 19.6667C25 19.1144 24.5523 18.6667 24 18.6667V20.6667ZM24 26C24.5523 26 25 25.5523 25 25C25 24.4477 24.5523 24 24 24V26ZM8.1875 5.33333C7.63522 5.33333 7.1875 5.78105 7.1875 6.33333C7.1875 6.88562 7.63522 7.33333 8.1875 7.33333V5.33333ZM16.8125 7.33333C17.3648 7.33333 17.8125 6.88562 17.8125 6.33333C17.8125 5.78105 17.3648 5.33333 16.8125 5.33333V7.33333ZM2 22.3333V3.66667H0V22.3333H2ZM2 3.66667C2 3.24995 2.17779 2.83359 2.52211 2.51422L1.16202 1.04788C0.428013 1.7287 0 2.6689 0 3.66667H2ZM2.52211 2.51422C2.86897 2.1925 3.35446 2 3.875 2L3.875 0C2.87055 0 1.8935 0.369406 1.16202 1.04788L2.52211 2.51422ZM3.875 2H23.1375V0H3.875V2ZM23.1375 2C23.1294 2 23.1198 1.99856 23.1089 1.99437C23.098 1.99018 23.0832 1.98222 23.0673 1.96749L24.4274 0.501143C24.0734 0.172739 23.6082 0 23.1375 0L23.1375 2ZM23.0673 1.96749C23.0342 1.93679 23 1.87835 23 1.8L25 1.8C25 1.2973 24.784 0.831899 24.4274 0.501143L23.0673 1.96749ZM23 1.8V19.2853H25V1.8H23ZM3.875 20.6667H24V18.6667H3.875V20.6667ZM3.875 26H24V24H3.875V26ZM3.875 24C3.35446 24 2.86897 23.8075 2.52211 23.4858L1.16202 24.9521C1.8935 25.6306 2.87054 26 3.875 26V24ZM2.52211 23.4858C2.17779 23.1664 2 22.7501 2 22.3333L0 22.3333C0 23.3311 0.428013 24.2713 1.16202 24.9521L2.52211 23.4858ZM2 22.3333C2 21.9166 2.17779 21.5003 2.52211 21.1809L1.16202 19.7145C0.428013 20.3954 0 21.3356 0 22.3333H2ZM2.52211 21.1809C2.86897 20.8592 3.35446 20.6667 3.875 20.6667V18.6667C2.87054 18.6667 1.8935 19.0361 1.16202 19.7145L2.52211 21.1809ZM8.1875 7.33333H16.8125V5.33333H8.1875V7.33333Z" fill="black"/>
</svg>
