<svg width="30" height="30" viewBox="0 0 30 30" fill="none" xmlns="http://www.w3.org/2000/svg">
<path d="M10.9988 29C8.68324 28.2807 6.58613 26.95 4.9116 25.1373C5.45037 24.4725 5.78623 23.6556 5.87619 22.7911C5.96616 21.9265 5.80614 21.0538 5.41661 20.2844C5.02708 19.515 4.42576 18.8841 3.6896 18.4723C2.95344 18.0605 2.11592 17.8865 1.2842 17.9727C1.09472 17.0071 0.999507 16.0241 1 15.0386C1 13.5165 1.224 12.0484 1.6412 10.6691H1.7C2.41383 10.6693 3.11594 10.4803 3.74003 10.1198C4.36413 9.75929 4.88961 9.23927 5.26687 8.60881C5.64413 7.97836 5.86071 7.25827 5.89616 6.51654C5.93162 5.77482 5.78478 5.03593 5.4695 4.36964C7.11071 2.77973 9.09554 1.62399 11.2564 1C11.6081 1.71835 12.1439 2.32149 12.8046 2.74268C13.4653 3.16387 14.2251 3.38669 15 3.3865C15.7749 3.38669 16.5347 3.16387 17.1954 2.74268C17.8561 2.32149 18.3919 1.71835 18.7436 1C20.9045 1.62399 22.8893 2.77973 24.5305 4.36964C24.2129 5.04059 24.0662 5.78512 24.1044 6.53195C24.1425 7.27878 24.3643 8.00292 24.7485 8.63506C25.1326 9.26719 25.6663 9.78617 26.2985 10.1423C26.9306 10.4984 27.64 10.6798 28.3588 10.6691C28.7851 12.0831 29.0013 13.5566 29 15.0386C29 16.0436 28.902 17.0253 28.7158 17.9735C27.8841 17.8873 27.0466 18.0612 26.3104 18.473C25.5742 18.8848 24.9729 19.5158 24.5834 20.2851C24.1939 21.0545 24.0338 21.9273 24.1238 22.7918C24.2138 23.6563 24.5496 24.4732 25.0884 25.1381C23.4138 26.9505 21.3167 28.2809 19.0012 29C18.7293 28.1183 18.1953 27.3492 17.4762 26.8035C16.7571 26.2579 15.89 25.9639 15 25.9639C14.11 25.9639 13.2429 26.2579 12.5238 26.8035C11.8047 27.3492 11.2707 28.1183 10.9988 29Z" stroke="black" stroke-width="2" stroke-linejoin="round"/>
<path d="M15 20.1364C15.6435 20.1364 16.2807 20.0045 16.8751 19.7483C17.4696 19.4922 18.0098 19.1167 18.4648 18.6433C18.9198 18.1699 19.2808 17.6079 19.527 16.9894C19.7733 16.3709 19.9 15.708 19.9 15.0386C19.9 14.3691 19.7733 13.7062 19.527 13.0878C19.2808 12.4693 18.9198 11.9073 18.4648 11.4339C18.0098 10.9605 17.4696 10.585 16.8751 10.3288C16.2807 10.0727 15.6435 9.9408 15 9.9408C13.7004 9.9408 12.4541 10.4779 11.5352 11.4339C10.6162 12.3899 10.1 13.6866 10.1 15.0386C10.1 16.3906 10.6162 17.6873 11.5352 18.6433C12.4541 19.5993 13.7004 20.1364 15 20.1364Z" stroke="black" stroke-width="2" stroke-linejoin="round"/>
</svg>
