<svg width="459" height="69" viewBox="0 0 459 69" fill="none" xmlns="http://www.w3.org/2000/svg">
<rect width="459" height="69" rx="34.5" fill="white"/>
<circle cx="423.5" cy="34.5" r="27.5" fill="#F13031"/>
<path d="M424.079 41.0862C423.993 40.995 423.924 40.8866 423.877 40.7673C423.83 40.6479 423.806 40.52 423.806 40.3907C423.806 40.2615 423.83 40.1336 423.877 40.0142C423.924 39.8949 423.993 39.7865 424.079 39.6953L428.061 35.4823L416.694 35.4823C416.447 35.4823 416.211 35.3789 416.037 35.1947C415.863 35.0106 415.766 34.7609 415.766 34.5005C415.766 34.2401 415.863 33.9903 416.037 33.8062C416.211 33.6221 416.447 33.5186 416.694 33.5186L428.061 33.5186L424.079 29.304C423.905 29.1196 423.807 28.8694 423.807 28.6086C423.807 28.3477 423.905 28.0975 424.079 27.9131C424.254 27.7286 424.49 27.625 424.737 27.625C424.983 27.625 425.219 27.7286 425.394 27.9131L430.961 33.8042C431.048 33.8954 431.117 34.0038 431.163 34.1231C431.21 34.2425 431.234 34.3704 431.234 34.4996C431.234 34.6289 431.21 34.7568 431.163 34.8762C431.117 34.9955 431.048 35.1039 430.961 35.1951L425.394 41.0862C425.308 41.1777 425.205 41.2504 425.092 41.2999C424.98 41.3495 424.859 41.375 424.737 41.375C424.614 41.375 424.493 41.3495 424.381 41.2999C424.268 41.2504 424.165 41.1777 424.079 41.0862Z" fill="white"/>
</svg>
