<svg width="51" height="51" viewBox="0 0 51 51" fill="none" xmlns="http://www.w3.org/2000/svg">
<circle cx="25.5326" cy="25.6733" r="24.9456" fill="#F13031"/>
<path d="M26.0581 31.6478C25.9797 31.565 25.9174 31.4667 25.8749 31.3584C25.8324 31.2502 25.8106 31.1341 25.8106 31.0169C25.8106 30.8997 25.8324 30.7836 25.8749 30.6754C25.9174 30.5671 25.9797 30.4688 26.0581 30.386L29.6699 26.5644L19.3585 26.5644C19.1353 26.5644 18.9212 26.4706 18.7633 26.3035C18.6055 26.1365 18.5168 25.91 18.5168 25.6738C18.5168 25.4375 18.6055 25.211 18.7633 25.044C18.9212 24.877 19.1353 24.7831 19.3585 24.7831L29.6699 24.7831L26.0581 20.96C25.9 20.7927 25.8112 20.5658 25.8112 20.3291C25.8112 20.0925 25.9 19.8656 26.0581 19.6983C26.2163 19.5309 26.4307 19.437 26.6544 19.437C26.878 19.437 27.0925 19.5309 27.2506 19.6983L32.3011 25.0421C32.3796 25.1249 32.4418 25.2232 32.4843 25.3315C32.5268 25.4397 32.5487 25.5558 32.5487 25.673C32.5487 25.7902 32.5268 25.9063 32.4843 26.0146C32.4418 26.1228 32.3796 26.2212 32.3011 26.3039L27.2506 31.6478C27.1724 31.7308 27.0795 31.7967 26.9772 31.8416C26.8749 31.8866 26.7652 31.9097 26.6544 31.9097C26.5436 31.9097 26.4339 31.8866 26.3316 31.8416C26.2293 31.7967 26.1363 31.7308 26.0581 31.6478Z" fill="white"/>
</svg>
