<svg width="112" height="46" viewBox="0 0 112 46" fill="none" xmlns="http://www.w3.org/2000/svg">
<rect x="0.5" y="0.5" width="45.7338" height="44.9281" rx="22.464" fill="white" stroke="#787878"/>
<rect x="65.7662" y="0.5" width="45.7338" height="44.9281" rx="22.464" fill="white" stroke="#787878"/>
<path fill-rule="evenodd" clip-rule="evenodd" d="M19.6765 24.2376C19.4598 24.0106 19.3381 23.7028 19.3381 23.3819C19.3381 23.0609 19.4598 22.7531 19.6765 22.5261L26.2144 15.679C26.321 15.5633 26.4485 15.4711 26.5895 15.4077C26.7305 15.3443 26.8822 15.3109 27.0357 15.3095C27.1891 15.3081 27.3413 15.3387 27.4833 15.3996C27.6254 15.4604 27.7544 15.5503 27.8629 15.6639C27.9714 15.7776 28.0572 15.9127 28.1154 16.0615C28.1735 16.2102 28.2027 16.3696 28.2014 16.5303C28.2 16.6911 28.1682 16.8499 28.1076 16.9976C28.047 17.1452 27.959 17.2788 27.8486 17.3904L22.1278 23.3819L27.8486 29.3733C28.0591 29.6016 28.1756 29.9073 28.173 30.2247C28.1703 30.542 28.0488 30.8456 27.8345 31.07C27.6202 31.2944 27.3304 31.4217 27.0273 31.4245C26.7243 31.4273 26.4324 31.3053 26.2144 31.0848L19.6765 24.2376Z" fill="#787878"/>
<path fill-rule="evenodd" clip-rule="evenodd" d="M93.1291 22.4962C93.3457 22.7232 93.4674 23.031 93.4674 23.3519C93.4674 23.6729 93.3457 23.9807 93.1291 24.2077L86.5911 31.0548C86.4845 31.1704 86.357 31.2627 86.216 31.3261C86.075 31.3895 85.9233 31.4229 85.7699 31.4243C85.6164 31.4257 85.4642 31.3951 85.3222 31.3342C85.1802 31.2734 85.0511 31.1835 84.9426 31.0698C84.8341 30.9562 84.7483 30.8211 84.6902 30.6723C84.6321 30.5235 84.6028 30.3642 84.6042 30.2035C84.6055 30.0427 84.6374 29.8839 84.698 29.7362C84.7585 29.5886 84.8466 29.455 84.957 29.3434L90.6778 23.3519L84.957 17.3605C84.7464 17.1322 84.6299 16.8265 84.6326 16.5091C84.6352 16.1918 84.7568 15.8882 84.971 15.6638C85.1853 15.4393 85.4752 15.3121 85.7782 15.3093C86.0812 15.3065 86.3732 15.4285 86.5911 15.649L93.1291 22.4962Z" fill="#787878"/>
</svg>
