<svg width="230" height="59" viewBox="0 0 230 59" fill="none" xmlns="http://www.w3.org/2000/svg">
<path d="M115 0H217C224.18 0 230 5.8203 230 13V46C230 53.1797 224.18 59 217 59H115V0Z" fill="white"/>
<path d="M0 13C0 5.8203 5.8203 0 13 0H115V59H13C5.8203 59 0 53.1797 0 46V13Z" fill="#F13031"/>
<path d="M61.8 23.8H75.1C76.145 23.8 77 22.945 77 21.9C77 20.855 76.145 20 75.1 20H61.8C60.755 20 59.9 20.855 59.9 21.9C59.9 22.945 60.755 23.8 61.8 23.8ZM75.1 35.2H61.8C60.755 35.2 59.9 36.055 59.9 37.1C59.9 38.145 60.755 39 61.8 39H75.1C76.145 39 77 38.145 77 37.1C77 36.055 76.145 35.2 75.1 35.2ZM75.1 27.6H67.5C66.455 27.6 65.6 28.455 65.6 29.5C65.6 30.545 66.455 31.4 67.5 31.4H75.1C76.145 31.4 77 30.545 77 29.5C77 28.455 76.145 27.6 75.1 27.6ZM52.015 21.615C51.8811 21.4837 51.7112 21.395 51.527 21.3601C51.3427 21.3251 51.1522 21.3455 50.9795 21.4186C50.8068 21.4918 50.6596 21.6144 50.5565 21.7711C50.4533 21.9278 50.3989 22.1114 50.4 22.299V27.6H40.9C39.855 27.6 39 28.455 39 29.5C39 30.545 39.855 31.4 40.9 31.4H50.4V36.701C50.4 37.556 51.426 37.974 52.015 37.366L59.216 30.165C59.596 29.785 59.596 29.196 59.216 28.816L52.015 21.615Z" fill="white"/>
<path d="M175.5 38.375C175.499 39.4775 175.21 40.5606 174.662 41.5172C174.114 42.4739 173.325 43.271 172.375 43.8297C172.09 43.9714 171.762 43.9993 171.458 43.9078C171.153 43.8162 170.895 43.6121 170.736 43.3369C170.577 43.0618 170.528 42.7363 170.601 42.4266C170.673 42.117 170.86 41.8465 171.125 41.6703C171.698 41.332 172.173 40.8502 172.503 40.2723C172.833 39.6944 173.006 39.0405 173.006 38.375C173.006 37.7095 172.833 37.0556 172.503 36.4777C172.173 35.8998 171.698 35.418 171.125 35.0797C170.86 34.9035 170.673 34.633 170.601 34.3234C170.528 34.0137 170.577 33.6882 170.736 33.4131C170.895 33.1379 171.153 32.9338 171.458 32.8422C171.762 32.7507 172.09 32.7786 172.375 32.9203C173.325 33.479 174.114 34.2761 174.662 35.2328C175.21 36.1894 175.499 37.2725 175.5 38.375ZM167.228 30.3453C167 30.2506 166.748 30.2257 166.506 30.2738C166.263 30.3219 166.041 30.4409 165.866 30.6156L162.483 34H159.25C158.918 34 158.601 34.1317 158.366 34.3661C158.132 34.6005 158 34.9185 158 35.25V41.5C158 41.8315 158.132 42.1495 158.366 42.3839C158.601 42.6183 158.918 42.75 159.25 42.75H162.483L165.866 46.1344C166.04 46.3094 166.263 46.4286 166.506 46.4769C166.748 46.5252 167 46.5005 167.228 46.4058C167.457 46.3111 167.652 46.1507 167.79 45.945C167.927 45.7392 168 45.4974 168 45.25V31.5C168 31.2528 167.927 31.0111 167.789 30.8056C167.652 30.6001 167.457 30.4399 167.228 30.3453ZM185.5 24V44C185.5 44.663 185.237 45.2989 184.768 45.7678C184.299 46.2366 183.663 46.5 183 46.5H178C177.668 46.5 177.351 46.3683 177.116 46.1339C176.882 45.8995 176.75 45.5815 176.75 45.25C176.75 44.9185 176.882 44.6005 177.116 44.3661C177.351 44.1317 177.668 44 178 44H183V25.25H175.5C175.168 25.25 174.851 25.1183 174.616 24.8839C174.382 24.6495 174.25 24.3315 174.25 24V16.5H160.5V29C160.5 29.3315 160.368 29.6495 160.134 29.8839C159.899 30.1183 159.582 30.25 159.25 30.25C158.918 30.25 158.601 30.1183 158.366 29.8839C158.132 29.6495 158 29.3315 158 29V16.5C158 15.837 158.263 15.2011 158.732 14.7322C159.201 14.2634 159.837 14 160.5 14H175.5C175.664 13.9999 175.827 14.0321 175.979 14.0948C176.13 14.1576 176.268 14.2496 176.384 14.3656L185.134 23.1156C185.25 23.2318 185.342 23.3697 185.405 23.5214C185.468 23.6732 185.5 23.8358 185.5 24ZM176.75 22.75H181.233L176.75 18.2672V22.75Z" fill="#F13031"/>
</svg>
