<svg width="25" height="25" viewBox="0 0 25 25" fill="none" xmlns="http://www.w3.org/2000/svg">
<path d="M23 23L16 16M2 10.1667C2 11.2391 2.21124 12.3011 2.62165 13.2919C3.03206 14.2827 3.63362 15.183 4.39196 15.9414C5.15031 16.6997 6.05059 17.3013 7.04142 17.7117C8.03224 18.1221 9.0942 18.3333 10.1667 18.3333C11.2391 18.3333 12.3011 18.1221 13.2919 17.7117C14.2827 17.3013 15.183 16.6997 15.9414 15.9414C16.6997 15.183 17.3013 14.2827 17.7117 13.2919C18.1221 12.3011 18.3333 11.2391 18.3333 10.1667C18.3333 9.0942 18.1221 8.03224 17.7117 7.04142C17.3013 6.05059 16.6997 5.15031 15.9414 4.39196C15.183 3.63362 14.2827 3.03206 13.2919 2.62165C12.3011 2.21124 11.2391 2 10.1667 2C9.0942 2 8.03224 2.21124 7.04142 2.62165C6.05059 3.03206 5.15031 3.63362 4.39196 4.39196C3.63362 5.15031 3.03206 6.05059 2.62165 7.04142C2.21124 8.03224 2 9.0942 2 10.1667Z" stroke="#545454" stroke-width="3" stroke-linecap="round" stroke-linejoin="round"/>
</svg>
